<mxfile host="app.diagrams.net" agent="Mozilla/5.0 (Windows NT 10.0; Win64; x64) AppleWebKit/537.36 (KHTML, like Gecko) Chrome/130.0.0.0 Safari/537.36" version="24.8.4">
  <diagram name="Page-1" id="ve7oVXkOOz5Z0k4UL4DX">
    <mxGraphModel dx="1820" dy="1114" grid="1" gridSize="10" guides="1" tooltips="1" connect="1" arrows="1" fold="1" page="1" pageScale="1" pageWidth="826" pageHeight="1169" math="0" shadow="0">
      <root>
        <mxCell id="0" />
        <mxCell id="1" parent="0" />
        <mxCell id="AOm2OtpAVyAGJr31sBE9-7" value="Order" style="swimlane;fontStyle=0;childLayout=stackLayout;horizontal=1;startSize=30;horizontalStack=0;resizeParent=1;resizeParentMax=0;resizeLast=0;collapsible=1;marginBottom=0;whiteSpace=wrap;html=1;dashed=1;fontFamily=Verdana;fillColor=#dae8fc;strokeColor=#6c8ebf;" vertex="1" parent="1">
          <mxGeometry x="720" y="70" width="280" height="150" as="geometry">
            <mxRectangle x="80" y="40" width="70" height="30" as="alternateBounds" />
          </mxGeometry>
        </mxCell>
        <mxCell id="AOm2OtpAVyAGJr31sBE9-8" value="- sandwich: List &amp;lt;Sandwich&amp;gt;" style="text;strokeColor=#666666;fillColor=#f5f5f5;align=left;verticalAlign=middle;spacingLeft=4;spacingRight=4;overflow=hidden;points=[[0,0.5],[1,0.5]];portConstraint=eastwest;rotatable=0;whiteSpace=wrap;html=1;fontColor=#333333;" vertex="1" parent="AOm2OtpAVyAGJr31sBE9-7">
          <mxGeometry y="30" width="280" height="30" as="geometry" />
        </mxCell>
        <mxCell id="AOm2OtpAVyAGJr31sBE9-9" value="-drink: List &amp;lt;Drink&amp;gt;" style="text;strokeColor=#666666;fillColor=#f5f5f5;align=left;verticalAlign=middle;spacingLeft=4;spacingRight=4;overflow=hidden;points=[[0,0.5],[1,0.5]];portConstraint=eastwest;rotatable=0;whiteSpace=wrap;html=1;fontColor=#333333;" vertex="1" parent="AOm2OtpAVyAGJr31sBE9-7">
          <mxGeometry y="60" width="280" height="30" as="geometry" />
        </mxCell>
        <mxCell id="AOm2OtpAVyAGJr31sBE9-10" value="-chips: List &amp;lt;Chip&amp;gt;" style="text;strokeColor=#666666;fillColor=#f5f5f5;align=left;verticalAlign=middle;spacingLeft=4;spacingRight=4;overflow=hidden;points=[[0,0.5],[1,0.5]];portConstraint=eastwest;rotatable=0;whiteSpace=wrap;html=1;dashed=1;fontColor=#333333;" vertex="1" parent="AOm2OtpAVyAGJr31sBE9-7">
          <mxGeometry y="90" width="280" height="30" as="geometry" />
        </mxCell>
        <mxCell id="AOm2OtpAVyAGJr31sBE9-16" value="-totalCost: double&amp;nbsp;" style="text;strokeColor=#666666;fillColor=#f5f5f5;align=left;verticalAlign=middle;spacingLeft=4;spacingRight=4;overflow=hidden;points=[[0,0.5],[1,0.5]];portConstraint=eastwest;rotatable=0;whiteSpace=wrap;html=1;rounded=0;fontColor=#333333;" vertex="1" parent="AOm2OtpAVyAGJr31sBE9-7">
          <mxGeometry y="120" width="280" height="30" as="geometry" />
        </mxCell>
        <mxCell id="AOm2OtpAVyAGJr31sBE9-17" value="+ addSandwich(s: Sandwich): void&amp;nbsp;&lt;div&gt;+ addDrink(d: Drink): void&amp;nbsp;&lt;/div&gt;&lt;div&gt;+ addChip(c: Chip): void&lt;/div&gt;&lt;div&gt;+ displayOrderDetails(): void&lt;/div&gt;&lt;div&gt;+calculateTotal(): double&amp;nbsp;&lt;/div&gt;" style="rounded=0;whiteSpace=wrap;html=1;align=left;dashed=1;spacingTop=0;spacing=4;spacingBottom=0;" vertex="1" parent="1">
          <mxGeometry x="720" y="220" width="280" height="100" as="geometry" />
        </mxCell>
        <mxCell id="AOm2OtpAVyAGJr31sBE9-25" value="Sandwich" style="swimlane;fontStyle=0;childLayout=stackLayout;horizontal=1;startSize=30;horizontalStack=0;resizeParent=1;resizeParentMax=0;resizeLast=0;collapsible=1;marginBottom=0;whiteSpace=wrap;html=1;dashed=1;fontFamily=Verdana;fillColor=#dae8fc;strokeColor=#6c8ebf;" vertex="1" parent="1">
          <mxGeometry x="360" y="430" width="280" height="150" as="geometry">
            <mxRectangle x="80" y="40" width="70" height="30" as="alternateBounds" />
          </mxGeometry>
        </mxCell>
        <mxCell id="AOm2OtpAVyAGJr31sBE9-26" value="- size: String" style="text;strokeColor=#666666;fillColor=#f5f5f5;align=left;verticalAlign=middle;spacingLeft=4;spacingRight=4;overflow=hidden;points=[[0,0.5],[1,0.5]];portConstraint=eastwest;rotatable=0;whiteSpace=wrap;html=1;fontColor=#333333;" vertex="1" parent="AOm2OtpAVyAGJr31sBE9-25">
          <mxGeometry y="30" width="280" height="30" as="geometry" />
        </mxCell>
        <mxCell id="AOm2OtpAVyAGJr31sBE9-27" value="- breadType: String" style="text;strokeColor=#666666;fillColor=#f5f5f5;align=left;verticalAlign=middle;spacingLeft=4;spacingRight=4;overflow=hidden;points=[[0,0.5],[1,0.5]];portConstraint=eastwest;rotatable=0;whiteSpace=wrap;html=1;fontColor=#333333;" vertex="1" parent="AOm2OtpAVyAGJr31sBE9-25">
          <mxGeometry y="60" width="280" height="30" as="geometry" />
        </mxCell>
        <mxCell id="AOm2OtpAVyAGJr31sBE9-28" value="- toppings: List&amp;lt;Topping&amp;gt;" style="text;strokeColor=#666666;fillColor=#f5f5f5;align=left;verticalAlign=middle;spacingLeft=4;spacingRight=4;overflow=hidden;points=[[0,0.5],[1,0.5]];portConstraint=eastwest;rotatable=0;whiteSpace=wrap;html=1;dashed=1;fontColor=#333333;" vertex="1" parent="AOm2OtpAVyAGJr31sBE9-25">
          <mxGeometry y="90" width="280" height="30" as="geometry" />
        </mxCell>
        <mxCell id="AOm2OtpAVyAGJr31sBE9-29" value="- isToasted: boolean" style="text;strokeColor=#666666;fillColor=#f5f5f5;align=left;verticalAlign=middle;spacingLeft=4;spacingRight=4;overflow=hidden;points=[[0,0.5],[1,0.5]];portConstraint=eastwest;rotatable=0;whiteSpace=wrap;html=1;rounded=0;fontColor=#333333;" vertex="1" parent="AOm2OtpAVyAGJr31sBE9-25">
          <mxGeometry y="120" width="280" height="30" as="geometry" />
        </mxCell>
        <mxCell id="AOm2OtpAVyAGJr31sBE9-30" value="+ addTopping(t: Topping): void&lt;div&gt;+ removeTopping(t: Topping): void&lt;/div&gt;&lt;div&gt;+calculatePrice(): double&lt;/div&gt;" style="rounded=0;whiteSpace=wrap;html=1;align=left;dashed=1;spacingTop=0;spacing=4;spacingBottom=0;" vertex="1" parent="1">
          <mxGeometry x="360" y="580" width="280" height="60" as="geometry" />
        </mxCell>
        <mxCell id="AOm2OtpAVyAGJr31sBE9-46" style="edgeStyle=orthogonalEdgeStyle;rounded=0;orthogonalLoop=1;jettySize=auto;html=1;endArrow=diamondThin;endFill=1;" edge="1" parent="1" source="AOm2OtpAVyAGJr31sBE9-31" target="AOm2OtpAVyAGJr31sBE9-32">
          <mxGeometry relative="1" as="geometry">
            <mxPoint x="500" y="740" as="targetPoint" />
          </mxGeometry>
        </mxCell>
        <mxCell id="AOm2OtpAVyAGJr31sBE9-31" value="&amp;lt;&amp;lt;implements&amp;gt;&amp;gt; Customizable, Pricable" style="rounded=0;whiteSpace=wrap;html=1;align=left;dashed=1;spacingTop=0;spacing=4;spacingBottom=0;" vertex="1" parent="1">
          <mxGeometry x="360" y="640" width="280" height="60" as="geometry" />
        </mxCell>
        <mxCell id="AOm2OtpAVyAGJr31sBE9-32" value="Topping" style="swimlane;fontStyle=0;childLayout=stackLayout;horizontal=1;startSize=30;horizontalStack=0;resizeParent=1;resizeParentMax=0;resizeLast=0;collapsible=1;marginBottom=0;whiteSpace=wrap;html=1;dashed=1;fontFamily=Verdana;fillColor=#dae8fc;strokeColor=#6c8ebf;" vertex="1" parent="1">
          <mxGeometry x="360" y="750" width="280" height="150" as="geometry">
            <mxRectangle x="80" y="40" width="70" height="30" as="alternateBounds" />
          </mxGeometry>
        </mxCell>
        <mxCell id="AOm2OtpAVyAGJr31sBE9-33" value="- name: String" style="text;strokeColor=#666666;fillColor=#f5f5f5;align=left;verticalAlign=middle;spacingLeft=4;spacingRight=4;overflow=hidden;points=[[0,0.5],[1,0.5]];portConstraint=eastwest;rotatable=0;whiteSpace=wrap;html=1;fontColor=#333333;" vertex="1" parent="AOm2OtpAVyAGJr31sBE9-32">
          <mxGeometry y="30" width="280" height="30" as="geometry" />
        </mxCell>
        <mxCell id="AOm2OtpAVyAGJr31sBE9-34" value="- price: double" style="text;strokeColor=#666666;fillColor=#f5f5f5;align=left;verticalAlign=middle;spacingLeft=4;spacingRight=4;overflow=hidden;points=[[0,0.5],[1,0.5]];portConstraint=eastwest;rotatable=0;whiteSpace=wrap;html=1;fontColor=#333333;" vertex="1" parent="AOm2OtpAVyAGJr31sBE9-32">
          <mxGeometry y="60" width="280" height="30" as="geometry" />
        </mxCell>
        <mxCell id="AOm2OtpAVyAGJr31sBE9-35" value="toppings: List&amp;lt;Topping&amp;gt;" style="text;strokeColor=#666666;fillColor=#f5f5f5;align=left;verticalAlign=middle;spacingLeft=4;spacingRight=4;overflow=hidden;points=[[0,0.5],[1,0.5]];portConstraint=eastwest;rotatable=0;whiteSpace=wrap;html=1;dashed=1;fontColor=#333333;" vertex="1" parent="AOm2OtpAVyAGJr31sBE9-32">
          <mxGeometry y="90" width="280" height="30" as="geometry" />
        </mxCell>
        <mxCell id="AOm2OtpAVyAGJr31sBE9-36" value="-isToasted: boolean" style="text;strokeColor=#666666;fillColor=#f5f5f5;align=left;verticalAlign=middle;spacingLeft=4;spacingRight=4;overflow=hidden;points=[[0,0.5],[1,0.5]];portConstraint=eastwest;rotatable=0;whiteSpace=wrap;html=1;rounded=0;fontColor=#333333;" vertex="1" parent="AOm2OtpAVyAGJr31sBE9-32">
          <mxGeometry y="120" width="280" height="30" as="geometry" />
        </mxCell>
        <mxCell id="AOm2OtpAVyAGJr31sBE9-44" style="edgeStyle=orthogonalEdgeStyle;rounded=0;orthogonalLoop=1;jettySize=auto;html=1;endArrow=diamondThin;endFill=0;" edge="1" parent="1" source="AOm2OtpAVyAGJr31sBE9-37">
          <mxGeometry relative="1" as="geometry">
            <mxPoint x="440" y="900" as="targetPoint" />
          </mxGeometry>
        </mxCell>
        <mxCell id="AOm2OtpAVyAGJr31sBE9-37" value="RegularTopping" style="swimlane;fontStyle=0;childLayout=stackLayout;horizontal=1;startSize=30;horizontalStack=0;resizeParent=1;resizeParentMax=0;resizeLast=0;collapsible=1;marginBottom=0;whiteSpace=wrap;html=1;dashed=1;fontFamily=Verdana;fillColor=#dae8fc;strokeColor=#6c8ebf;" vertex="1" parent="1">
          <mxGeometry x="360" y="970" width="160" height="60" as="geometry">
            <mxRectangle x="80" y="40" width="70" height="30" as="alternateBounds" />
          </mxGeometry>
        </mxCell>
        <mxCell id="AOm2OtpAVyAGJr31sBE9-45" style="edgeStyle=orthogonalEdgeStyle;rounded=0;orthogonalLoop=1;jettySize=auto;html=1;exitX=0.25;exitY=0;exitDx=0;exitDy=0;endArrow=diamondThin;endFill=0;" edge="1" parent="1" source="AOm2OtpAVyAGJr31sBE9-42">
          <mxGeometry relative="1" as="geometry">
            <mxPoint x="579.6666666666667" y="900" as="targetPoint" />
          </mxGeometry>
        </mxCell>
        <mxCell id="AOm2OtpAVyAGJr31sBE9-42" value="PremiumTopping" style="swimlane;fontStyle=0;childLayout=stackLayout;horizontal=1;startSize=30;horizontalStack=0;resizeParent=1;resizeParentMax=0;resizeLast=0;collapsible=1;marginBottom=0;whiteSpace=wrap;html=1;dashed=1;fontFamily=Verdana;fillColor=#dae8fc;strokeColor=#6c8ebf;" vertex="1" parent="1">
          <mxGeometry x="540" y="970" width="160" height="60" as="geometry">
            <mxRectangle x="80" y="40" width="70" height="30" as="alternateBounds" />
          </mxGeometry>
        </mxCell>
        <mxCell id="AOm2OtpAVyAGJr31sBE9-47" value="Drink" style="swimlane;fontStyle=0;childLayout=stackLayout;horizontal=1;startSize=30;horizontalStack=0;resizeParent=1;resizeParentMax=0;resizeLast=0;collapsible=1;marginBottom=0;whiteSpace=wrap;html=1;dashed=1;fontFamily=Verdana;fillColor=#dae8fc;strokeColor=#6c8ebf;" vertex="1" parent="1">
          <mxGeometry x="680" y="430" width="280" height="90" as="geometry">
            <mxRectangle x="80" y="40" width="70" height="30" as="alternateBounds" />
          </mxGeometry>
        </mxCell>
        <mxCell id="AOm2OtpAVyAGJr31sBE9-48" value="- size: String" style="text;strokeColor=#666666;fillColor=#f5f5f5;align=left;verticalAlign=middle;spacingLeft=4;spacingRight=4;overflow=hidden;points=[[0,0.5],[1,0.5]];portConstraint=eastwest;rotatable=0;whiteSpace=wrap;html=1;fontColor=#333333;" vertex="1" parent="AOm2OtpAVyAGJr31sBE9-47">
          <mxGeometry y="30" width="280" height="30" as="geometry" />
        </mxCell>
        <mxCell id="AOm2OtpAVyAGJr31sBE9-49" value="- flavor: String" style="text;strokeColor=#666666;fillColor=#f5f5f5;align=left;verticalAlign=middle;spacingLeft=4;spacingRight=4;overflow=hidden;points=[[0,0.5],[1,0.5]];portConstraint=eastwest;rotatable=0;whiteSpace=wrap;html=1;fontColor=#333333;" vertex="1" parent="AOm2OtpAVyAGJr31sBE9-47">
          <mxGeometry y="60" width="280" height="30" as="geometry" />
        </mxCell>
        <mxCell id="AOm2OtpAVyAGJr31sBE9-52" value="&lt;br&gt;&lt;div&gt;+calculatePrice(): double&lt;/div&gt;" style="rounded=0;whiteSpace=wrap;html=1;align=left;dashed=1;spacingTop=0;spacing=4;spacingBottom=0;verticalAlign=bottom;" vertex="1" parent="1">
          <mxGeometry x="680" y="520" width="280" height="30" as="geometry" />
        </mxCell>
        <mxCell id="AOm2OtpAVyAGJr31sBE9-53" value="&amp;lt;&amp;lt;implements&amp;gt;&amp;gt;&amp;nbsp; Pricable" style="rounded=0;whiteSpace=wrap;html=1;align=left;dashed=1;spacingTop=0;spacing=4;spacingBottom=0;" vertex="1" parent="1">
          <mxGeometry x="680" y="550" width="280" height="60" as="geometry" />
        </mxCell>
        <mxCell id="AOm2OtpAVyAGJr31sBE9-54" value="Chip" style="swimlane;fontStyle=0;childLayout=stackLayout;horizontal=1;startSize=30;horizontalStack=0;resizeParent=1;resizeParentMax=0;resizeLast=0;collapsible=1;marginBottom=0;whiteSpace=wrap;html=1;dashed=1;fontFamily=Verdana;fillColor=#dae8fc;strokeColor=#6c8ebf;" vertex="1" parent="1">
          <mxGeometry x="1000" y="430" width="280" height="60" as="geometry">
            <mxRectangle x="80" y="40" width="70" height="30" as="alternateBounds" />
          </mxGeometry>
        </mxCell>
        <mxCell id="AOm2OtpAVyAGJr31sBE9-55" value="- size: String" style="text;strokeColor=#666666;fillColor=#f5f5f5;align=left;verticalAlign=middle;spacingLeft=4;spacingRight=4;overflow=hidden;points=[[0,0.5],[1,0.5]];portConstraint=eastwest;rotatable=0;whiteSpace=wrap;html=1;fontColor=#333333;" vertex="1" parent="AOm2OtpAVyAGJr31sBE9-54">
          <mxGeometry y="30" width="280" height="30" as="geometry" />
        </mxCell>
        <mxCell id="AOm2OtpAVyAGJr31sBE9-57" value="&lt;br&gt;&lt;div&gt;+calculatePrice(): double&lt;/div&gt;" style="rounded=0;whiteSpace=wrap;html=1;align=left;dashed=1;spacingTop=0;spacing=4;spacingBottom=0;verticalAlign=bottom;" vertex="1" parent="1">
          <mxGeometry x="1000" y="490" width="280" height="30" as="geometry" />
        </mxCell>
        <mxCell id="AOm2OtpAVyAGJr31sBE9-58" value="&amp;lt;&amp;lt;implements&amp;gt;&amp;gt;&amp;nbsp; Pricable" style="rounded=0;whiteSpace=wrap;html=1;align=left;dashed=1;spacingTop=0;spacing=4;spacingBottom=0;" vertex="1" parent="1">
          <mxGeometry x="1000" y="520" width="280" height="60" as="geometry" />
        </mxCell>
        <mxCell id="AOm2OtpAVyAGJr31sBE9-59" value="&amp;lt;&amp;lt;interface&amp;gt;&amp;gt;&lt;div&gt;Customizable&lt;/div&gt;" style="swimlane;fontStyle=0;childLayout=stackLayout;horizontal=1;startSize=30;horizontalStack=0;resizeParent=1;resizeParentMax=0;resizeLast=0;collapsible=1;marginBottom=0;whiteSpace=wrap;html=1;dashed=1;fontFamily=Verdana;fillColor=#dae8fc;strokeColor=#6c8ebf;" vertex="1" parent="1">
          <mxGeometry x="20" y="90" width="280" height="30" as="geometry">
            <mxRectangle x="80" y="40" width="70" height="30" as="alternateBounds" />
          </mxGeometry>
        </mxCell>
        <mxCell id="AOm2OtpAVyAGJr31sBE9-64" value="&amp;lt;&amp;lt;interface&amp;gt;&amp;gt;&lt;div&gt;Pricable&lt;/div&gt;" style="swimlane;fontStyle=0;childLayout=stackLayout;horizontal=1;startSize=30;horizontalStack=0;resizeParent=1;resizeParentMax=0;resizeLast=0;collapsible=1;marginBottom=0;whiteSpace=wrap;html=1;dashed=1;fontFamily=Verdana;fillColor=#dae8fc;strokeColor=#6c8ebf;" vertex="1" parent="1">
          <mxGeometry x="340" y="90" width="280" height="30" as="geometry">
            <mxRectangle x="80" y="40" width="70" height="30" as="alternateBounds" />
          </mxGeometry>
        </mxCell>
        <mxCell id="AOm2OtpAVyAGJr31sBE9-70" value="&lt;br&gt;&lt;div&gt;+calculatePrice(): double&lt;/div&gt;" style="rounded=0;whiteSpace=wrap;html=1;align=left;dashed=1;spacingTop=0;spacing=4;spacingBottom=0;" vertex="1" parent="1">
          <mxGeometry x="20" y="120" width="280" height="60" as="geometry" />
        </mxCell>
        <mxCell id="AOm2OtpAVyAGJr31sBE9-71" value="&lt;br&gt;&lt;div&gt;+calculatePrice(): double&lt;/div&gt;" style="rounded=0;whiteSpace=wrap;html=1;align=left;dashed=1;spacingTop=0;spacing=4;spacingBottom=0;" vertex="1" parent="1">
          <mxGeometry x="340" y="120" width="280" height="60" as="geometry" />
        </mxCell>
        <mxCell id="AOm2OtpAVyAGJr31sBE9-72" style="edgeStyle=orthogonalEdgeStyle;rounded=0;orthogonalLoop=1;jettySize=auto;html=1;entryX=0.478;entryY=0.01;entryDx=0;entryDy=0;entryPerimeter=0;endArrow=open;endFill=0;" edge="1" parent="1" source="AOm2OtpAVyAGJr31sBE9-17" target="AOm2OtpAVyAGJr31sBE9-25">
          <mxGeometry relative="1" as="geometry" />
        </mxCell>
        <mxCell id="AOm2OtpAVyAGJr31sBE9-73" style="edgeStyle=orthogonalEdgeStyle;rounded=0;orthogonalLoop=1;jettySize=auto;html=1;entryX=0.645;entryY=-0.012;entryDx=0;entryDy=0;entryPerimeter=0;endArrow=open;endFill=0;" edge="1" parent="1" source="AOm2OtpAVyAGJr31sBE9-17" target="AOm2OtpAVyAGJr31sBE9-47">
          <mxGeometry relative="1" as="geometry" />
        </mxCell>
        <mxCell id="AOm2OtpAVyAGJr31sBE9-74" style="edgeStyle=orthogonalEdgeStyle;rounded=0;orthogonalLoop=1;jettySize=auto;html=1;exitX=1;exitY=0.5;exitDx=0;exitDy=0;entryX=0.58;entryY=0.07;entryDx=0;entryDy=0;entryPerimeter=0;endArrow=open;endFill=0;" edge="1" parent="1" source="AOm2OtpAVyAGJr31sBE9-17" target="AOm2OtpAVyAGJr31sBE9-54">
          <mxGeometry relative="1" as="geometry" />
        </mxCell>
        <mxCell id="AOm2OtpAVyAGJr31sBE9-76" value="Receipt" style="swimlane;fontStyle=0;childLayout=stackLayout;horizontal=1;startSize=30;horizontalStack=0;resizeParent=1;resizeParentMax=0;resizeLast=0;collapsible=1;marginBottom=0;whiteSpace=wrap;html=1;dashed=1;fontFamily=Verdana;fillColor=#dae8fc;strokeColor=#6c8ebf;" vertex="1" parent="1">
          <mxGeometry x="959" y="680" width="280" height="90" as="geometry">
            <mxRectangle x="80" y="40" width="70" height="30" as="alternateBounds" />
          </mxGeometry>
        </mxCell>
        <mxCell id="AOm2OtpAVyAGJr31sBE9-77" value="- orderDetails: String" style="text;strokeColor=#666666;fillColor=#f5f5f5;align=left;verticalAlign=middle;spacingLeft=4;spacingRight=4;overflow=hidden;points=[[0,0.5],[1,0.5]];portConstraint=eastwest;rotatable=0;whiteSpace=wrap;html=1;fontColor=#333333;" vertex="1" parent="AOm2OtpAVyAGJr31sBE9-76">
          <mxGeometry y="30" width="280" height="30" as="geometry" />
        </mxCell>
        <mxCell id="AOm2OtpAVyAGJr31sBE9-78" value="- fileName: String" style="text;strokeColor=#666666;fillColor=#f5f5f5;align=left;verticalAlign=middle;spacingLeft=4;spacingRight=4;overflow=hidden;points=[[0,0.5],[1,0.5]];portConstraint=eastwest;rotatable=0;whiteSpace=wrap;html=1;fontColor=#333333;" vertex="1" parent="AOm2OtpAVyAGJr31sBE9-76">
          <mxGeometry y="60" width="280" height="30" as="geometry" />
        </mxCell>
        <mxCell id="AOm2OtpAVyAGJr31sBE9-81" value="+ generateReceiptFile():void&amp;nbsp;&lt;div&gt;&lt;span style=&quot;background-color: initial;&quot;&gt;&amp;nbsp;&lt;/span&gt;&lt;/div&gt;" style="rounded=0;whiteSpace=wrap;html=1;align=left;dashed=1;spacingTop=0;spacing=4;spacingBottom=0;" vertex="1" parent="1">
          <mxGeometry x="959" y="770" width="280" height="40" as="geometry" />
        </mxCell>
        <mxCell id="AOm2OtpAVyAGJr31sBE9-82" value="&amp;lt;&amp;lt;depends on&amp;gt;&amp;gt;&amp;nbsp; Order" style="rounded=0;whiteSpace=wrap;html=1;align=left;dashed=1;spacingTop=0;spacing=4;spacingBottom=0;" vertex="1" parent="1">
          <mxGeometry x="959" y="810" width="280" height="60" as="geometry" />
        </mxCell>
      </root>
    </mxGraphModel>
  </diagram>
</mxfile>
